<?xml version="1.0" encoding="UTF-8" standalone="no"?>
<!DOCTYPE svg PUBLIC "-//W3C//DTD SVG 1.1//EN"
 "http://www.w3.org/Graphics/SVG/1.1/DTD/svg11.dtd">
<!-- Generated by graphviz version 9.0.0 (20230911.1827)
 -->
<!-- Title: finite_state_machine Pages: 1 -->
<svg width="740pt" height="338pt"
 viewBox="0.00 0.00 739.58 337.81" xmlns="http://www.w3.org/2000/svg" xmlns:xlink="http://www.w3.org/1999/xlink">
<g id="graph0" class="graph" transform="scale(1 1) rotate(0) translate(4 333.81)">
<title>finite_state_machine</title>
<polygon fill="white" stroke="none" points="-4,4 -4,-333.81 735.58,-333.81 735.58,4 -4,4"/>
<!-- LR_0 -->
<g id="node1" class="node">
<title>LR_0</title>
<ellipse fill="none" stroke="black" cx="35.9" cy="-83.9" rx="31.9" ry="31.9"/>
<ellipse fill="none" stroke="black" cx="35.9" cy="-83.9" rx="35.9" ry="35.9"/>
<text text-anchor="middle" x="35.9" y="-78.85" font-family="Times,serif" font-size="14.00">LR_0</text>
</g>
<!-- LR_2 -->
<g id="node5" class="node">
<title>LR_2</title>
<ellipse fill="none" stroke="black" cx="172.71" cy="-152.9" rx="31.9" ry="31.9"/>
<text text-anchor="middle" x="172.71" y="-147.85" font-family="Times,serif" font-size="14.00">LR_2</text>
</g>
<!-- LR_0&#45;&gt;LR_2 -->
<g id="edge1" class="edge">
<title>LR_0&#45;&gt;LR_2</title>
<path fill="none" stroke="black" d="M68.51,-100.08C88.08,-110.1 113.33,-123.02 133.95,-133.58"/>
<polygon fill="black" stroke="black" points="132.11,-136.57 142.61,-138.01 135.3,-130.34 132.11,-136.57"/>
<text text-anchor="middle" x="106.31" y="-129.1" font-family="Times,serif" font-size="14.00">SS(B)</text>
</g>
<!-- LR_1 -->
<g id="node6" class="node">
<title>LR_1</title>
<ellipse fill="none" stroke="black" cx="172.71" cy="-42.9" rx="31.9" ry="31.9"/>
<text text-anchor="middle" x="172.71" y="-37.85" font-family="Times,serif" font-size="14.00">LR_1</text>
</g>
<!-- LR_0&#45;&gt;LR_1 -->
<g id="edge2" class="edge">
<title>LR_0&#45;&gt;LR_1</title>
<path fill="none" stroke="black" d="M70.57,-73.66C88.83,-68.11 111.53,-61.21 130.79,-55.35"/>
<polygon fill="black" stroke="black" points="131.68,-58.73 140.23,-52.48 129.65,-52.04 131.68,-58.73"/>
<text text-anchor="middle" x="106.31" y="-71.1" font-family="Times,serif" font-size="14.00">SS(S)</text>
</g>
<!-- LR_3 -->
<g id="node2" class="node">
<title>LR_3</title>
<ellipse fill="none" stroke="black" cx="319.26" cy="-35.9" rx="31.9" ry="31.9"/>
<ellipse fill="none" stroke="black" cx="319.26" cy="-35.9" rx="35.9" ry="35.9"/>
<text text-anchor="middle" x="319.26" y="-30.85" font-family="Times,serif" font-size="14.00">LR_3</text>
</g>
<!-- LR_4 -->
<g id="node3" class="node">
<title>LR_4</title>
<ellipse fill="none" stroke="black" cx="319.26" cy="-293.9" rx="31.9" ry="31.9"/>
<ellipse fill="none" stroke="black" cx="319.26" cy="-293.9" rx="35.9" ry="35.9"/>
<text text-anchor="middle" x="319.26" y="-288.85" font-family="Times,serif" font-size="14.00">LR_4</text>
</g>
<!-- LR_8 -->
<g id="node4" class="node">
<title>LR_8</title>
<ellipse fill="none" stroke="black" cx="695.68" cy="-148.9" rx="31.9" ry="31.9"/>
<ellipse fill="none" stroke="black" cx="695.68" cy="-148.9" rx="35.9" ry="35.9"/>
<text text-anchor="middle" x="695.68" y="-143.85" font-family="Times,serif" font-size="14.00">LR_8</text>
</g>
<!-- LR_6 -->
<g id="node7" class="node">
<title>LR_6</title>
<ellipse fill="none" stroke="black" cx="319.26" cy="-173.9" rx="31.9" ry="31.9"/>
<text text-anchor="middle" x="319.26" y="-168.85" font-family="Times,serif" font-size="14.00">LR_6</text>
</g>
<!-- LR_8&#45;&gt;LR_6 -->
<g id="edge13" class="edge">
<title>LR_8&#45;&gt;LR_6</title>
<path fill="none" stroke="black" d="M660.26,-155.98C617.6,-164.37 542.54,-177.84 477.47,-182.9 449.2,-185.1 441.99,-184.26 413.67,-182.9 396.91,-182.1 378.51,-180.48 362.51,-178.84"/>
<polygon fill="black" stroke="black" points="363.16,-175.39 352.85,-177.81 362.42,-182.35 363.16,-175.39"/>
<text text-anchor="middle" x="507.1" y="-184.1" font-family="Times,serif" font-size="14.00">S(b)</text>
</g>
<!-- LR_5 -->
<g id="node8" class="node">
<title>LR_5</title>
<ellipse fill="none" stroke="black" cx="445.57" cy="-107.9" rx="31.9" ry="31.9"/>
<text text-anchor="middle" x="445.57" y="-102.85" font-family="Times,serif" font-size="14.00">LR_5</text>
</g>
<!-- LR_8&#45;&gt;LR_5 -->
<g id="edge14" class="edge">
<title>LR_8&#45;&gt;LR_5</title>
<path fill="none" stroke="black" d="M659.69,-143.97C619.84,-138.23 552.83,-128.22 495.47,-117.9 493.17,-117.49 490.82,-117.05 488.44,-116.6"/>
<polygon fill="black" stroke="black" points="489.28,-113.2 478.79,-114.71 487.93,-120.07 489.28,-113.2"/>
<text text-anchor="middle" x="568.62" y="-137.1" font-family="Times,serif" font-size="14.00">S(a)</text>
</g>
<!-- LR_2&#45;&gt;LR_4 -->
<g id="edge6" class="edge">
<title>LR_2&#45;&gt;LR_4</title>
<path fill="none" stroke="black" d="M196.29,-174.93C220.04,-198.1 257.66,-234.79 284.84,-261.31"/>
<polygon fill="black" stroke="black" points="282.23,-263.65 291.83,-268.12 287.12,-258.64 282.23,-263.65"/>
<text text-anchor="middle" x="243.99" y="-243.1" font-family="Times,serif" font-size="14.00">S(A)</text>
</g>
<!-- LR_2&#45;&gt;LR_6 -->
<g id="edge4" class="edge">
<title>LR_2&#45;&gt;LR_6</title>
<path fill="none" stroke="black" d="M204.72,-157.41C225.58,-160.44 253.35,-164.47 276.2,-167.79"/>
<polygon fill="black" stroke="black" points="275.41,-171.21 285.81,-169.19 276.41,-164.29 275.41,-171.21"/>
<text text-anchor="middle" x="243.99" y="-168.1" font-family="Times,serif" font-size="14.00">SS(b)</text>
</g>
<!-- LR_2&#45;&gt;LR_5 -->
<g id="edge5" class="edge">
<title>LR_2&#45;&gt;LR_5</title>
<path fill="none" stroke="black" d="M202.46,-140.96C224.26,-132.5 255.17,-121.74 283.36,-116.4 323.09,-108.88 369.25,-107.14 401.96,-107.05"/>
<polygon fill="black" stroke="black" points="401.85,-110.55 411.86,-107.08 401.87,-103.55 401.85,-110.55"/>
<text text-anchor="middle" x="319.26" y="-119.1" font-family="Times,serif" font-size="14.00">SS(a)</text>
</g>
<!-- LR_1&#45;&gt;LR_3 -->
<g id="edge3" class="edge">
<title>LR_1&#45;&gt;LR_3</title>
<path fill="none" stroke="black" d="M205.07,-41.38C224.57,-40.44 249.99,-39.21 271.8,-38.15"/>
<polygon fill="black" stroke="black" points="271.82,-41.66 281.64,-37.68 271.48,-34.66 271.82,-41.66"/>
<text text-anchor="middle" x="243.99" y="-44.1" font-family="Times,serif" font-size="14.00">S($end)</text>
</g>
<!-- LR_6&#45;&gt;LR_6 -->
<g id="edge9" class="edge">
<title>LR_6&#45;&gt;LR_6</title>
<path fill="none" stroke="black" d="M307.07,-203.62C306.67,-214.69 310.74,-223.81 319.26,-223.81 324.59,-223.81 328.18,-220.24 330.02,-214.87"/>
<polygon fill="black" stroke="black" points="333.47,-215.48 331.26,-205.12 326.53,-214.6 333.47,-215.48"/>
<text text-anchor="middle" x="319.26" y="-227.01" font-family="Times,serif" font-size="14.00">S(b)</text>
</g>
<!-- LR_6&#45;&gt;LR_5 -->
<g id="edge10" class="edge">
<title>LR_6&#45;&gt;LR_5</title>
<path fill="none" stroke="black" d="M347.85,-159.26C365.23,-150.03 387.9,-137.99 406.92,-127.89"/>
<polygon fill="black" stroke="black" points="408.53,-131 415.72,-123.22 405.25,-124.82 408.53,-131"/>
<text text-anchor="middle" x="384.42" y="-147.1" font-family="Times,serif" font-size="14.00">S(a)</text>
</g>
<!-- LR_5&#45;&gt;LR_5 -->
<g id="edge8" class="edge">
<title>LR_5&#45;&gt;LR_5</title>
<path fill="none" stroke="black" d="M434.11,-138.11C433.87,-148.96 437.69,-157.81 445.57,-157.81 450.37,-157.81 453.67,-154.52 455.45,-149.5"/>
<polygon fill="black" stroke="black" points="458.92,-150 456.82,-139.61 451.98,-149.04 458.92,-150"/>
<text text-anchor="middle" x="445.57" y="-161.01" font-family="Times,serif" font-size="14.00">S(a)</text>
</g>
<!-- LR_7 -->
<g id="node9" class="node">
<title>LR_7</title>
<ellipse fill="none" stroke="black" cx="568.62" cy="-80.9" rx="31.9" ry="31.9"/>
<text text-anchor="middle" x="568.62" y="-75.85" font-family="Times,serif" font-size="14.00">LR_7</text>
</g>
<!-- LR_5&#45;&gt;LR_7 -->
<g id="edge7" class="edge">
<title>LR_5&#45;&gt;LR_7</title>
<path fill="none" stroke="black" d="M477.12,-101.09C492.03,-97.76 510.18,-93.71 526.31,-90.12"/>
<polygon fill="black" stroke="black" points="526.61,-93.64 535.61,-88.04 525.09,-86.8 526.61,-93.64"/>
<text text-anchor="middle" x="507.1" y="-100.1" font-family="Times,serif" font-size="14.00">S(b)</text>
</g>
<!-- LR_7&#45;&gt;LR_8 -->
<g id="edge11" class="edge">
<title>LR_7&#45;&gt;LR_8</title>
<path fill="none" stroke="black" d="M597.53,-95.05C610.97,-101.95 627.29,-110.47 641.78,-118.4 645.86,-120.64 650.09,-123 654.31,-125.39"/>
<polygon fill="black" stroke="black" points="652.3,-128.27 662.72,-130.18 655.77,-122.19 652.3,-128.27"/>
<text text-anchor="middle" x="630.15" y="-121.1" font-family="Times,serif" font-size="14.00">S(b)</text>
</g>
<!-- LR_7&#45;&gt;LR_5 -->
<g id="edge12" class="edge">
<title>LR_7&#45;&gt;LR_5</title>
<path fill="none" stroke="black" d="M537.57,-71.72C524.4,-69.12 508.91,-68.04 495.47,-72.4 489.88,-74.22 484.39,-76.94 479.23,-80.09"/>
<polygon fill="black" stroke="black" points="477.31,-77.16 471.01,-85.68 481.25,-82.95 477.31,-77.16"/>
<text text-anchor="middle" x="507.1" y="-76.1" font-family="Times,serif" font-size="14.00">S(a)</text>
</g>
</g>
</svg>
